<?xml version="1.0" standalone="no"?><!DOCTYPE svg PUBLIC "-//W3C//DTD SVG 1.1//EN" "http://www.w3.org/Graphics/SVG/1.1/DTD/svg11.dtd"><svg t="1623844186332" class="icon" viewBox="0 0 1024 1024" version="1.1" xmlns="http://www.w3.org/2000/svg" p-id="1929" xmlns:xlink="http://www.w3.org/1999/xlink" width="200" height="200"><defs><style type="text/css"></style></defs><path d="M663.466667 230.4c-64 0-117.333333 44.8-151.466667 93.866667-34.133333-49.066667-87.466667-93.866667-151.466667-93.866667-104.533333 0-189.866667 85.333333-189.866666 189.866667 0 36.266667 10.666667 74.666667 25.6 100.266666 12.8 25.6 32 49.066667 42.666666 59.733334l236.8 236.8c10.666667 10.666667 23.466667 14.933333 38.4 14.933333s27.733333-4.266667 38.4-17.066667l230.4-234.666666c12.8-10.666667 38.4-49.066667 46.933334-61.866667 14.933333-27.733333 25.6-66.133333 25.6-102.4-2.133333-100.266667-87.466667-185.6-192-185.6z m128 270.933333c-4.266667 10.666667-29.866667 42.666667-38.4 51.2L520.533333 789.333333c-4.266667 4.266667-12.8 4.266667-17.066666 0L270.933333 554.666667h-2.133333c-10.666667-10.666667-25.6-29.866667-36.266667-51.2-12.8-21.333333-19.2-53.333333-19.2-81.066667 0-81.066667 66.133333-147.2 147.2-147.2 55.466667 0 104.533333 51.2 132.266667 102.4 4.266667 6.4 10.666667 10.666667 19.2 10.666667s14.933333-4.266667 19.2-10.666667c25.6-51.2 76.8-102.4 132.266667-102.4 81.066667 0 147.2 66.133333 147.2 147.2 0 25.6-8.533333 57.6-19.2 78.933333z" fill="#2c2c2c" p-id="1930"></path></svg>