<?xml version="1.0" standalone="no"?><!DOCTYPE svg PUBLIC "-//W3C//DTD SVG 1.1//EN" "http://www.w3.org/Graphics/SVG/1.1/DTD/svg11.dtd"><svg t="1623843873824" class="icon" viewBox="0 0 1024 1024" version="1.1" xmlns="http://www.w3.org/2000/svg" p-id="2961" xmlns:xlink="http://www.w3.org/1999/xlink" width="200" height="200"><defs><style type="text/css"></style></defs><path d="M272 416a48 48 0 1 0 96 0 48 48 0 1 0-96 0zM464 416a48 48 0 1 0 96 0 48 48 0 1 0-96 0zM656 416a48 48 0 1 0 96 0 48 48 0 1 0-96 0z" fill="#2c2c2c" p-id="2962"></path><path d="M896 128H128c-35.2 0-64 28.8-64 64v448c0 35.2 28.8 64 64 64h160v192l192-192h416c35.2 0 64-28.8 64-64V192c0-35.2-28.8-64-64-64z m0 480c0 19.2-12.8 32-32 32H448l-96 96v-96H160c-19.2 0-32-12.8-32-32V224c0-19.2 12.8-32 32-32h704c19.2 0 32 12.8 32 32v384z" fill="#2c2c2c" p-id="2963"></path></svg>