<?xml version="1.0" standalone="no"?><!DOCTYPE svg PUBLIC "-//W3C//DTD SVG 1.1//EN" "http://www.w3.org/Graphics/SVG/1.1/DTD/svg11.dtd"><svg t="1623172639165" class="icon" viewBox="0 0 1024 1024" version="1.1" xmlns="http://www.w3.org/2000/svg" p-id="8814" xmlns:xlink="http://www.w3.org/1999/xlink" width="200" height="200"><defs><style type="text/css"></style></defs><path d="M810.666667 384v213.333333c0 59.733333-46.933333 106.666667-106.666667 106.666667h-202.666667c-12.8 0-21.333333-8.533333-21.333333-21.333333s8.533333-21.333333 21.333333-21.333334H704c36.266667 0 64-27.733333 64-64V384c0-36.266667-27.733333-64-64-64H320c-36.266667 0-64 27.733333-64 64v322.133333c23.466667-6.4 64-25.6 98.133333-42.666666 10.666667-4.266667 23.466667 0 27.733334 8.533333 4.266667 10.666667 0 23.466667-8.533334 27.733333-81.066667 40.533333-115.2 49.066667-132.266666 49.066667-8.533333 0-12.8-2.133333-14.933334-4.266667-6.4-4.266667-12.8-12.8-12.8-21.333333V384c0-59.733333 46.933333-106.666667 106.666667-106.666667h384c59.733333 0 106.666667 46.933333 106.666667 106.666667z m-448 81.066667c-23.466667 0-42.666667 19.2-42.666667 42.666666s19.2 42.666667 42.666667 42.666667 42.666667-19.2 42.666666-42.666667-19.2-42.666667-42.666666-42.666666z m149.333333 85.333333c23.466667 0 42.666667-19.2 42.666667-42.666667s-19.2-42.666667-42.666667-42.666666-42.666667 19.2-42.666667 42.666666 19.2 42.666667 42.666667 42.666667z m192-42.666667c0-23.466667-19.2-42.666667-42.666667-42.666666s-42.666667 19.2-42.666666 42.666666 19.2 42.666667 42.666666 42.666667 42.666667-19.2 42.666667-42.666667z" fill="#2c2c2c" p-id="8815"></path></svg>